<?xml version="1.0" encoding="UTF-8" standalone="no"?>
<!DOCTYPE svg PUBLIC "-//W3C//DTD SVG 1.1//EN" "http://www.w3.org/Graphics/SVG/1.1/DTD/svg11.dtd">
<svg width="100%" height="100%" viewBox="0 0 104 104" version="1.1" xmlns="http://www.w3.org/2000/svg" xmlns:xlink="http://www.w3.org/1999/xlink" xml:space="preserve" xmlns:serif="http://www.serif.com/" style="fill-rule:evenodd;clip-rule:evenodd;stroke-linecap:round;stroke-linejoin:round;stroke-miterlimit:1.5;">
    <g transform="matrix(1.40248,0,0,1.40248,-11.2412,-41.9744)">
        <circle cx="45.283" cy="67.06" r="34.745" style="fill:rgb(235,235,235);fill-opacity:0;stroke:black;stroke-width:3.21px;"/>
    </g>
    <g transform="matrix(0.575463,0,0,0.575463,-2.7349,21.0771)">
        <g id="desenho">
            <g>
                <g>
                    <g>
                        <g transform="matrix(1,0,0,1,2,2)">
                            <path d="M31.057,15.669L31.057,27.335L30.728,87.967" style="fill:none;stroke:black;stroke-width:7.82px;"/>
                        </g>
                        <g transform="matrix(1,0,0,1,2,2)">
                            <path d="M30.728,87.967L156.264,15.505" style="fill:none;stroke:black;stroke-width:7.82px;"/>
                        </g>
                        <g transform="matrix(1,0,0,1,2,2)">
                            <path d="M156.264,15.998L156.428,87.803" style="fill:none;stroke:black;stroke-width:7.82px;"/>
                        </g>
                        <g transform="matrix(1,0,0,1,2,2)">
                            <path d="M156.428,87.803L31.55,15.998" style="fill:none;stroke:black;stroke-width:7.82px;"/>
                        </g>
                        <g transform="matrix(1,0,0,1,2,2)">
                            <path d="M93.496,24.378L93.332,79.258" style="fill:none;stroke:black;stroke-width:7.82px;"/>
                        </g>
                    </g>
                </g>
            </g>
        </g>
    </g>
</svg>
