<?xml version="1.0" encoding="UTF-8" standalone="no"?>
<!DOCTYPE svg PUBLIC "-//W3C//DTD SVG 1.1//EN" "http://www.w3.org/Graphics/SVG/1.1/DTD/svg11.dtd">
<svg width="100%" height="100%" viewBox="0 0 192 89" version="1.1" xmlns="http://www.w3.org/2000/svg" xmlns:xlink="http://www.w3.org/1999/xlink" xml:space="preserve" xmlns:serif="http://www.serif.com/" style="fill-rule:evenodd;clip-rule:evenodd;stroke-linecap:round;stroke-linejoin:round;stroke-miterlimit:1.5;">
    <g transform="matrix(0.811373,0,0,0.811373,-27.732,-41.7003)">
        <g transform="matrix(1.18187,0,0,0.236426,-28.6973,107.137)">
            <rect x="54.446" y="61.225" width="35.045" height="10.982" style="fill:rgb(242,13,13);"/>
        </g>
        <g transform="matrix(1.18187,0,0,0.253313,-28.6973,108.699)">
            <rect x="54.446" y="61.225" width="35.045" height="10.982" style="fill:rgb(242,94,13);"/>
        </g>
        <g transform="matrix(1.18187,0,0,0.253313,-28.6973,111.481)">
            <rect x="54.446" y="61.225" width="35.045" height="10.982" style="fill:rgb(229,242,13);"/>
        </g>
        <g transform="matrix(1.18187,0,0,0.236425,-28.6973,115.04)">
            <rect x="54.446" y="61.225" width="35.045" height="10.982" style="fill:rgb(67,242,13);"/>
        </g>
        <g transform="matrix(1.18187,0,0,0.253313,-28.6973,116.603)">
            <rect x="54.446" y="61.225" width="35.045" height="10.982" style="fill:rgb(13,202,242);"/>
        </g>
        <g transform="matrix(1.18187,0,0,0.253313,-28.6973,122.167)">
            <rect x="54.446" y="61.225" width="35.045" height="10.982" style="fill:rgb(147,13,242);"/>
        </g>
        <g transform="matrix(1.18187,0,0,0.253313,-28.6973,119.385)">
            <rect x="54.446" y="61.225" width="35.045" height="10.982" style="fill:rgb(13,40,242);"/>
        </g>
        <g transform="matrix(1.72414,0,0,1.72414,-78.3522,15.3802)">
            <path d="M86.656,72.473L99.786,41.139L125.858,40.889" style="fill:none;stroke:rgb(13,121,242);stroke-width:4.29px;"/>
        </g>
        <g transform="matrix(-1.72414,0,0,1.72414,356.051,15.3802)">
            <path d="M86.656,72.473L99.786,41.139L125.858,40.889" style="fill:none;stroke:rgb(13,121,242);stroke-width:4.29px;"/>
        </g>
        <g transform="matrix(1,0,0,1,-6.89289,-7.94941)">
            <path d="M213.032,146.804L255.517,146.804" style="fill:none;stroke:rgb(13,121,242);stroke-width:7.39px;"/>
        </g>
        <g transform="matrix(1.72414,0,0,1.72414,-77.3319,15.3802)">
            <path d="M75.217,80.624L106.178,58.563" style="fill:none;stroke:black;stroke-width:5px;"/>
        </g>
        <g transform="matrix(-1.72414,0,0,1.72414,354.06,16.4036)">
            <path d="M82.487,47.407L115.83,23.465" style="fill:none;stroke:black;stroke-width:5px;"/>
        </g>
        <g transform="matrix(-1.72414,0,0,1.72414,355.257,15.3802)">
            <path d="M75.217,80.624L106.178,58.563" style="fill:none;stroke:black;stroke-width:5px;"/>
        </g>
        <g transform="matrix(1.62921e-16,2.66071,-2.06471,1.26427e-16,335.908,-245.543)">
            <path d="M144.472,32.24L149.549,43.27L139.396,43.27L144.472,32.24Z" style="fill:rgb(13,121,242);stroke:rgb(13,121,242);stroke-width:0.52px;"/>
        </g>
        <g transform="matrix(1.72414,0,0,1.72414,-76.135,16.4036)">
            <path d="M82.487,47.407L115.83,23.465" style="fill:none;stroke:black;stroke-width:5px;"/>
        </g>
    </g>
</svg>
