<?xml version="1.0" encoding="UTF-8" standalone="no"?>
<!DOCTYPE svg PUBLIC "-//W3C//DTD SVG 1.1//EN" "http://www.w3.org/Graphics/SVG/1.1/DTD/svg11.dtd">
<svg width="100%" height="100%" viewBox="0 0 116 98" version="1.1" xmlns="http://www.w3.org/2000/svg" xmlns:xlink="http://www.w3.org/1999/xlink" xml:space="preserve" xmlns:serif="http://www.serif.com/" style="fill-rule:evenodd;clip-rule:evenodd;stroke-linecap:round;stroke-linejoin:round;stroke-miterlimit:1.5;">
    <g id="Desenho" transform="matrix(1,0,0,1,-36,-6)">
        <g transform="matrix(7.12007,0,0,7.12007,-582.749,-361.356)">
            <g transform="matrix(2.8162,0,0,1.65658,-113.227,-36.2158)">
                <path d="M76.797,53.711C76.797,53.372 76.636,53.097 76.436,53.097L71.473,53.097C71.274,53.097 71.112,53.372 71.112,53.711L71.112,54.938C71.112,55.277 71.274,55.552 71.473,55.552L76.436,55.552C76.636,55.552 76.797,55.277 76.797,54.938L76.797,53.711Z"/>
            </g>
            <g transform="matrix(2.8162,0,0,1.65658,-113.27,-26.8713)">
                <path d="M76.797,53.711C76.797,53.372 76.636,53.097 76.436,53.097L71.473,53.097C71.274,53.097 71.112,53.372 71.112,53.711L71.112,54.938C71.112,55.277 71.274,55.552 71.473,55.552L76.436,55.552C76.636,55.552 76.797,55.277 76.797,54.938L76.797,53.711Z"/>
            </g>
        </g>
        <g transform="matrix(1,0,0,1.28268,0,-15.4769)">
            <path d="M41.621,66.958C41.621,66.958 59.892,16.613 86.051,60.517" style="fill:none;stroke:black;stroke-width:3.04px;"/>
            <g transform="matrix(-1,0,0,1,187.672,0)">
                <path d="M41.621,66.958C41.621,66.958 59.892,16.613 86.051,60.517" style="fill:none;stroke:black;stroke-width:3.04px;"/>
            </g>
            <g transform="matrix(1.00269,0,0,0.992299,-0.317546,0.508225)">
                <path d="M86.13,60.433C86.13,60.433 93.197,73.053 101.778,60.265" style="fill:none;stroke:black;stroke-width:3.05px;"/>
            </g>
        </g>
    </g>
</svg>
