<?xml version="1.0" encoding="UTF-8" standalone="no"?>
<!DOCTYPE svg PUBLIC "-//W3C//DTD SVG 1.1//EN" "http://www.w3.org/Graphics/SVG/1.1/DTD/svg11.dtd">
<svg width="100%" height="100%" viewBox="0 0 108 108" version="1.1" xmlns="http://www.w3.org/2000/svg" xmlns:xlink="http://www.w3.org/1999/xlink" xml:space="preserve" xmlns:serif="http://www.serif.com/" style="fill-rule:evenodd;clip-rule:evenodd;stroke-linecap:round;stroke-linejoin:round;stroke-miterlimit:1.5;">
    <g id="desenho" transform="matrix(1,0,0,1,-43,0)">
        <g>
            <g transform="matrix(1.81713,0,0,1.81713,-73.7672,-40.5458)">
                <g transform="matrix(1.04956,0,0,1.04956,51.3282,-21.8304)">
                    <circle cx="40.607" cy="70.408" r="27.053" style="fill:rgb(235,235,235);fill-opacity:0;stroke:black;stroke-width:1.84px;"/>
                </g>
                <path d="M78.409,48.21L74.007,32.335" style="fill:none;stroke:black;stroke-width:1.93px;"/>
                <g transform="matrix(0.511173,-0.859478,0.859478,0.511173,8.99895,78.8723)">
                    <path d="M78.409,48.33L74.007,32.335" style="fill:none;stroke:black;stroke-width:1.93px;"/>
                </g>
                <g transform="matrix(1,0,0,1.00556,1.08136e-13,-0.17889)">
                    <path d="M90.686,48.122L74.613,32.2" style="fill:none;stroke:black;stroke-width:1.92px;"/>
                </g>
                <path d="M93.996,80.322L94.095,59.16" style="fill:none;stroke:black;stroke-width:1.93px;"/>
                <path d="M97.563,48.257L114.052,32.066" style="fill:none;stroke:black;stroke-width:1.93px;"/>
                <path d="M109.31,48.219L113.918,32.671" style="fill:none;stroke:black;stroke-width:1.93px;"/>
                <g transform="matrix(0.514179,0.857683,-0.857683,0.514179,83.2734,-82.4868)">
                    <path d="M109.31,48.259L113.918,32.671" style="fill:none;stroke:black;stroke-width:1.93px;"/>
                </g>
                <path d="M84.91,64.236L93.929,80.456" style="fill:none;stroke:black;stroke-width:1.93px;"/>
                <g transform="matrix(1,0,0,0.990041,0,0.640368)">
                    <path d="M103.217,64.304L93.861,80.524" style="fill:none;stroke:black;stroke-width:1.94px;"/>
                </g>
                <g transform="matrix(0.550319,0,0,0.550319,40.2037,22.3131)">
                    <rect x="66.722" y="49.504" width="59.981" height="14.773" style="fill:white;fill-opacity:0;stroke:black;stroke-opacity:0;stroke-width:1px;"/>
                </g>
            </g>
            <g transform="matrix(1.37628,0,0,1.33757,37.6952,0.631186)">
                <g>
                    <path d="M24.604,46.228L24.604,38.652L21.774,38.652L21.774,37.639L28.583,37.639L28.583,38.652L25.741,38.652L25.741,46.228L24.604,46.228Z" style="fill-rule:nonzero;stroke:black;stroke-width:0.74px;stroke-linecap:butt;stroke-miterlimit:2;"/>
                    <path d="M35.386,37.639L36.522,37.639L36.522,42.601C36.522,43.465 36.425,44.15 36.229,44.658C36.034,45.166 35.682,45.579 35.172,45.897C34.662,46.216 33.993,46.375 33.165,46.375C32.36,46.375 31.702,46.236 31.19,45.959C30.679,45.682 30.313,45.28 30.095,44.755C29.876,44.229 29.766,43.512 29.766,42.601L29.766,37.639L30.903,37.639L30.903,42.596C30.903,43.342 30.973,43.891 31.111,44.245C31.25,44.599 31.488,44.871 31.826,45.062C32.164,45.254 32.577,45.35 33.065,45.35C33.901,45.35 34.497,45.16 34.852,44.781C35.208,44.402 35.386,43.674 35.386,42.596L35.386,37.639Z" style="fill-rule:nonzero;stroke:black;stroke-width:0.74px;stroke-linecap:butt;stroke-miterlimit:2;"/>
                    <path d="M38.432,46.228L38.432,37.639L42.241,37.639C43.007,37.639 43.589,37.716 43.987,37.87C44.386,38.024 44.704,38.297 44.942,38.687C45.181,39.078 45.3,39.51 45.3,39.982C45.3,40.592 45.102,41.105 44.708,41.523C44.313,41.941 43.704,42.207 42.88,42.32C43.181,42.465 43.409,42.607 43.565,42.748C43.897,43.053 44.212,43.433 44.509,43.891L46.003,46.228L44.573,46.228L43.436,44.441C43.104,43.926 42.831,43.531 42.616,43.258C42.401,42.984 42.209,42.793 42.039,42.683C41.869,42.574 41.696,42.498 41.52,42.455C41.391,42.428 41.181,42.414 40.888,42.414L39.569,42.414L39.569,46.228L38.432,46.228ZM39.569,41.43L42.013,41.43C42.532,41.43 42.938,41.376 43.231,41.268C43.524,41.161 43.747,40.989 43.899,40.753C44.052,40.516 44.128,40.26 44.128,39.982C44.128,39.576 43.98,39.242 43.685,38.98C43.39,38.719 42.925,38.588 42.288,38.588L39.569,38.588L39.569,41.43Z" style="fill-rule:nonzero;stroke:black;stroke-width:0.74px;stroke-linecap:butt;stroke-miterlimit:2;"/>
                    <path d="M47.034,46.228L47.034,37.639L50.257,37.639C50.913,37.639 51.439,37.725 51.836,37.899C52.232,38.073 52.543,38.341 52.767,38.702C52.992,39.063 53.104,39.441 53.104,39.836C53.104,40.203 53.005,40.549 52.806,40.873C52.606,41.197 52.306,41.459 51.903,41.658C52.423,41.81 52.822,42.07 53.101,42.437C53.381,42.805 53.52,43.238 53.52,43.738C53.52,44.141 53.435,44.515 53.265,44.86C53.096,45.206 52.886,45.473 52.636,45.66C52.386,45.848 52.072,45.989 51.695,46.085C51.318,46.181 50.856,46.228 50.309,46.228L47.034,46.228ZM48.171,41.248L50.028,41.248C50.532,41.248 50.893,41.215 51.112,41.148C51.401,41.062 51.619,40.92 51.765,40.721C51.912,40.521 51.985,40.271 51.985,39.971C51.985,39.685 51.917,39.434 51.78,39.218C51.643,39.001 51.448,38.852 51.194,38.772C50.94,38.692 50.505,38.652 49.888,38.652L48.171,38.652L48.171,41.248ZM48.171,45.215L50.309,45.215C50.677,45.215 50.934,45.201 51.083,45.174C51.345,45.127 51.563,45.049 51.739,44.939C51.915,44.83 52.059,44.671 52.173,44.462C52.286,44.253 52.343,44.012 52.343,43.738C52.343,43.418 52.261,43.14 52.097,42.903C51.932,42.667 51.705,42.501 51.414,42.405C51.123,42.309 50.704,42.262 50.157,42.262L48.171,42.262L48.171,45.215Z" style="fill-rule:nonzero;stroke:black;stroke-width:0.74px;stroke-linecap:butt;stroke-miterlimit:2;"/>
                    <path d="M54.739,42.045C54.739,40.619 55.122,39.503 55.888,38.696C56.653,37.89 57.641,37.486 58.852,37.486C59.645,37.486 60.36,37.676 60.997,38.055C61.634,38.433 62.119,38.962 62.453,39.64C62.787,40.317 62.954,41.086 62.954,41.945C62.954,42.816 62.778,43.596 62.427,44.283C62.075,44.971 61.577,45.491 60.932,45.845C60.288,46.198 59.593,46.375 58.847,46.375C58.038,46.375 57.315,46.18 56.679,45.789C56.042,45.398 55.559,44.865 55.231,44.189C54.903,43.514 54.739,42.799 54.739,42.045ZM55.911,42.062C55.911,43.098 56.189,43.913 56.746,44.509C57.303,45.104 58.001,45.402 58.841,45.402C59.696,45.402 60.4,45.101 60.953,44.5C61.506,43.898 61.782,43.045 61.782,41.939C61.782,41.24 61.664,40.63 61.428,40.108C61.191,39.587 60.846,39.183 60.39,38.895C59.935,38.608 59.425,38.465 58.858,38.465C58.054,38.465 57.361,38.741 56.781,39.294C56.201,39.847 55.911,40.769 55.911,42.062Z" style="fill-rule:nonzero;stroke:black;stroke-width:0.74px;stroke-linecap:butt;stroke-miterlimit:2;"/>
                </g>
            </g>
            <g transform="matrix(1.79008,0,0,1.79207,-70.8269,-39.0691)">
                <path d="M119.571,39.402L105.101,78.437" style="fill:none;stroke:black;stroke-width:1.95px;"/>
            </g>
            <g transform="matrix(1.81713,0,0,1.81713,-73.7672,-40.5458)">
                <path d="M68.502,39.442L82.77,77.885" style="fill:none;stroke:black;stroke-width:1.93px;"/>
            </g>
        </g>
    </g>
</svg>
