<?xml version="1.0" encoding="UTF-8" standalone="no"?>
<!DOCTYPE svg PUBLIC "-//W3C//DTD SVG 1.1//EN" "http://www.w3.org/Graphics/SVG/1.1/DTD/svg11.dtd">
<svg width="100%" height="100%" viewBox="0 0 108 108" version="1.1" xmlns="http://www.w3.org/2000/svg" xmlns:xlink="http://www.w3.org/1999/xlink" xml:space="preserve" xmlns:serif="http://www.serif.com/" style="fill-rule:evenodd;clip-rule:evenodd;stroke-linecap:round;stroke-linejoin:round;stroke-miterlimit:1.5;">
    <g transform="matrix(1.46096,0,0,1.46096,-87.0338,-30.722)">
        <g id="Desenho">
            <g>
                <g transform="matrix(0.990081,0,0,0.990081,29.3255,-13.175)">
                    <circle cx="67.883" cy="71.858" r="35.065" style="fill:rgb(235,235,235);fill-opacity:0;stroke:black;stroke-width:3.11px;"/>
                </g>
                <g transform="matrix(1.06404,0,0,1.24385,1.5461,22.6255)">
                    <path d="M76.999,18.251L76.999,9.661L80.239,9.661C80.809,9.661 81.245,9.688 81.546,9.743C81.968,9.813 82.321,9.947 82.606,10.144C82.891,10.342 83.121,10.618 83.295,10.973C83.469,11.329 83.556,11.719 83.556,12.145C83.556,12.876 83.323,13.494 82.858,14C82.393,14.506 81.554,14.759 80.339,14.759L78.136,14.759L78.136,18.251L76.999,18.251ZM78.136,13.745L80.356,13.745C81.091,13.745 81.612,13.608 81.921,13.335C82.229,13.061 82.384,12.676 82.384,12.18C82.384,11.821 82.293,11.513 82.111,11.258C81.93,11.002 81.69,10.833 81.393,10.751C81.202,10.7 80.849,10.675 80.333,10.675L78.136,10.675L78.136,13.745Z" style="fill-rule:nonzero;stroke:black;stroke-width:1.01px;stroke-linecap:butt;stroke-miterlimit:2;"/>
                    <rect x="88.313" y="9.661" width="1.137" height="8.59" style="stroke:black;stroke-width:1.01px;stroke-linecap:butt;stroke-miterlimit:2;"/>
                    <path d="M94.806,18.251L94.806,9.661L98.614,9.661C99.38,9.661 99.962,9.738 100.36,9.892C100.759,10.047 101.077,10.319 101.315,10.71C101.554,11.1 101.673,11.532 101.673,12.005C101.673,12.614 101.475,13.128 101.081,13.546C100.686,13.964 100.077,14.229 99.253,14.342C99.554,14.487 99.782,14.63 99.938,14.77C100.27,15.075 100.585,15.456 100.882,15.913L102.376,18.251L100.946,18.251L99.809,16.464C99.477,15.948 99.204,15.553 98.989,15.28C98.774,15.007 98.582,14.815 98.412,14.706C98.242,14.596 98.069,14.52 97.893,14.477C97.765,14.45 97.554,14.436 97.261,14.436L95.942,14.436L95.942,18.251L94.806,18.251ZM95.942,13.452L98.386,13.452C98.905,13.452 99.311,13.398 99.604,13.291C99.897,13.183 100.12,13.011 100.272,12.775C100.425,12.539 100.501,12.282 100.501,12.005C100.501,11.598 100.353,11.264 100.058,11.003C99.764,10.741 99.298,10.61 98.661,10.61L95.942,10.61L95.942,13.452Z" style="fill-rule:nonzero;stroke:black;stroke-width:1.01px;stroke-linecap:butt;stroke-miterlimit:2;"/>
                </g>
                <g transform="matrix(1,0,0,1,-0.677173,0)">
                    <g transform="matrix(1.00862,0,0,1.01484,-0.703532,5.47696)">
                        <path d="M81.61,46.033L96.599,77.951" style="fill:none;stroke:black;stroke-width:3.04px;"/>
                    </g>
                    <g transform="matrix(1,0,0,1,-7.10543e-15,6.16032)">
                        <path d="M111.804,45.904L96.729,78.382" style="fill:none;stroke:black;stroke-width:3.08px;"/>
                    </g>
                    <g transform="matrix(1,0,0,1,-7.10543e-15,6.16032)">
                        <path d="M81.505,60.634L112.919,60.536" style="fill:none;stroke:black;stroke-width:3.08px;"/>
                    </g>
                </g>
            </g>
        </g>
    </g>
</svg>
