<?xml version="1.0" encoding="UTF-8" standalone="no"?>
<!DOCTYPE svg PUBLIC "-//W3C//DTD SVG 1.1//EN" "http://www.w3.org/Graphics/SVG/1.1/DTD/svg11.dtd">
<svg width="100%" height="100%" viewBox="0 0 158 108" version="1.1" xmlns="http://www.w3.org/2000/svg" xmlns:xlink="http://www.w3.org/1999/xlink" xml:space="preserve" xmlns:serif="http://www.serif.com/" style="fill-rule:evenodd;clip-rule:evenodd;stroke-linecap:round;stroke-linejoin:round;stroke-miterlimit:1.5;">
    <g transform="matrix(1.93828,0,0,1.93828,-48.8585,-30.3845)">
        <path d="M32.987,42.666C32.987,42.666 49.213,58.107 73.356,58.107" style="fill:none;stroke:black;stroke-width:1.55px;"/>
        <path d="M32.54,54.968L32.987,42.666" style="fill:none;stroke:black;stroke-width:1.55px;"/>
        <path d="M32.54,54.968L73.139,70.125" style="fill:none;stroke:black;stroke-width:1.55px;"/>
        <path d="M73.139,70.125L98.473,50.962" style="fill:none;stroke:black;stroke-width:1.55px;"/>
        <path d="M98.473,50.962L98.257,40.135" style="fill:none;stroke:black;stroke-width:1.55px;"/>
        <path d="M98.257,40.135C98.257,40.135 75.413,39.014 58.524,24.221" style="fill:none;stroke:black;stroke-width:1.55px;"/>
        <path d="M32.973,42.664L58.524,24.221" style="fill:none;stroke:black;stroke-width:1.55px;"/>
        <path d="M73.139,70.125L73.681,57.891" style="fill:none;stroke:black;stroke-width:1.55px;"/>
        <path d="M73.681,57.891L98.257,40.135" style="fill:none;stroke:black;stroke-width:1.55px;"/>
        <path d="M26.74,25.405C26.74,25.405 52.115,55.22 97.789,54.797" style="fill:none;stroke:rgb(13,40,242);stroke-width:1.55px;"/>
        <path d="M36.89,18.427C36.89,18.427 67.128,49.722 103.498,51.625" style="fill:none;stroke:rgb(13,40,242);stroke-width:1.55px;"/>
        <path d="M45.771,16.947C45.771,16.947 77.066,46.128 105.19,47.185" style="fill:none;stroke:rgb(13,40,242);stroke-width:1.55px;"/>
    </g>
</svg>
