<?xml version="1.0" encoding="UTF-8" standalone="no"?>
<!DOCTYPE svg PUBLIC "-//W3C//DTD SVG 1.1//EN" "http://www.w3.org/Graphics/SVG/1.1/DTD/svg11.dtd">
<svg width="100%" height="100%" viewBox="0 0 142 108" version="1.1" xmlns="http://www.w3.org/2000/svg" xmlns:xlink="http://www.w3.org/1999/xlink" xml:space="preserve" xmlns:serif="http://www.serif.com/" style="fill-rule:evenodd;clip-rule:evenodd;stroke-linecap:round;stroke-linejoin:round;stroke-miterlimit:1.5;">
    <g transform="matrix(2.02496,0,0,2.02496,-185.02,-56.4315)">
        <g transform="matrix(1,0,0,1,-32.9175,0)">
            <g transform="matrix(1,0,0,1,33,0)">
                <path d="M101.072,34.761C101.072,34.761 125.252,39.704 141.153,50.868" style="fill:none;stroke:black;stroke-width:1.48px;"/>
            </g>
            <g transform="matrix(1,0,0,1,33,0)">
                <path d="M101.072,34.761L98.91,65.631" style="fill:none;stroke:black;stroke-width:1.48px;"/>
            </g>
            <g transform="matrix(1,0,0,1,33,0)">
                <path d="M101.072,34.761L108.698,28.908" style="fill:none;stroke:black;stroke-width:1.48px;"/>
            </g>
            <g transform="matrix(1,0,0,1,33,0)">
                <path d="M141.153,50.868L139.631,80.133" style="fill:none;stroke:black;stroke-width:1.48px;"/>
            </g>
            <g transform="matrix(1,0,0,1,33,0)">
                <path d="M98.91,65.631C98.91,65.631 111.841,65.621 139.631,80.133" style="fill:none;stroke:black;stroke-width:1.48px;"/>
            </g>
            <g transform="matrix(1,0,0,1,33,0)">
                <path d="M141.153,50.868L150.119,44.948" style="fill:none;stroke:black;stroke-width:1.48px;"/>
            </g>
            <g transform="matrix(1,0,0,1,33,0)">
                <path d="M108.698,28.908L150.119,44.948" style="fill:none;stroke:black;stroke-width:1.48px;"/>
            </g>
            <g transform="matrix(1,0,0,1,33,0)">
                <path d="M150.119,44.948L148.718,74.454" style="fill:none;stroke:black;stroke-width:1.48px;"/>
            </g>
            <g transform="matrix(1,0,0,1,33,0)">
                <path d="M148.718,74.454L139.631,80.133" style="fill:none;stroke:black;stroke-width:1.48px;"/>
            </g>
        </g>
        <path d="M92.654,44.112C92.654,44.112 102.824,44.781 117.039,49.444C129.669,53.588 145.491,60.885 160.211,73.669" style="fill:none;stroke:rgb(13,40,242);stroke-width:1.48px;"/>
        <path d="M92.654,49.524C92.654,49.524 131.629,56.236 159.345,78.322" style="fill:none;stroke:rgb(13,40,242);stroke-width:1.48px;"/>
        <path d="M92.762,54.288C92.762,54.288 127.082,58.402 158.045,80.163" style="fill:none;stroke:rgb(13,40,242);stroke-width:1.48px;"/>
    </g>
</svg>
